<svg width="221" height="239" viewBox="0 0 221 239" fill="none" xmlns="http://www.w3.org/2000/svg">
<g clip-path="url(#clip0_4_16)">
<path d="M155.988 126.278L156.481 195.652L132.161 195.825L131.668 126.451L155.988 126.278ZM144.376 203.419C148.813 203.387 152.406 204.599 155.154 207.054C157.902 209.509 159.289 212.572 159.315 216.241C159.341 219.91 157.998 222.992 155.285 225.486C152.572 227.98 148.997 229.242 144.559 229.274C140.122 229.306 136.53 228.136 133.782 225.767C131.035 223.482 129.649 220.505 129.623 216.836C129.595 212.996 130.938 209.786 133.65 207.207C136.278 204.714 139.853 203.451 144.376 203.419Z" fill="black"/>
<path d="M95.4885 201V188.072L93.8245 184.872V161.064C93.8245 157.224 92.6298 154.28 90.2405 152.232C87.9365 150.099 84.2245 149.032 79.1045 149.032C75.7765 149.032 72.4058 149.587 68.9925 150.696C65.5792 151.72 62.6778 153.171 60.2885 155.048L52.0965 138.536C56.0218 135.976 60.7152 134.013 66.1765 132.648C71.7232 131.197 77.2272 130.472 82.6885 130.472C93.9525 130.472 102.657 133.075 108.801 138.28C115.03 143.4 118.145 151.464 118.145 162.472V201H95.4885ZM75.0085 202.152C69.4618 202.152 64.7685 201.213 60.9285 199.336C57.0885 197.459 54.1445 194.899 52.0965 191.656C50.1338 188.413 49.1525 184.787 49.1525 180.776C49.1525 176.509 50.2192 172.84 52.3525 169.768C54.5712 166.611 57.9418 164.221 62.4645 162.6C66.9872 160.893 72.8325 160.04 80.0005 160.04H96.3845V172.712H83.3285C79.4032 172.712 76.6298 173.352 75.0085 174.632C73.4725 175.912 72.7045 177.619 72.7045 179.752C72.7045 181.885 73.5152 183.592 75.1365 184.872C76.7578 186.152 78.9765 186.792 81.7925 186.792C84.4378 186.792 86.8272 186.152 88.9605 184.872C91.1792 183.507 92.8005 181.459 93.8245 178.728L97.1525 187.688C95.8725 192.467 93.3552 196.093 89.6005 198.568C85.9312 200.957 81.0672 202.152 75.0085 202.152Z" fill="black"/>
<path d="M93.926 124V111.072L92.262 107.872V84.064C92.262 80.224 91.0673 77.28 88.678 75.232C86.374 73.0987 82.662 72.032 77.542 72.032C74.214 72.032 70.8433 72.5867 67.43 73.696C64.0167 74.72 61.1153 76.1707 58.726 78.048L50.534 61.536C54.4593 58.976 59.1527 57.0133 64.614 55.648C70.1607 54.1973 75.6647 53.472 81.126 53.472C92.39 53.472 101.094 56.0747 107.238 61.28C113.467 66.4 116.582 74.464 116.582 85.472V124H93.926ZM73.446 125.152C67.8993 125.152 63.206 124.213 59.366 122.336C55.526 120.459 52.582 117.899 50.534 114.656C48.5713 111.413 47.59 107.787 47.59 103.776C47.59 99.5093 48.6567 95.84 50.79 92.768C53.0087 89.6107 56.3793 87.2213 60.902 85.6C65.4247 83.8933 71.27 83.04 78.438 83.04H94.822V95.712H81.766C77.8407 95.712 75.0673 96.352 73.446 97.632C71.91 98.912 71.142 100.619 71.142 102.752C71.142 104.885 71.9527 106.592 73.574 107.872C75.1953 109.152 77.414 109.792 80.23 109.792C82.8753 109.792 85.2647 109.152 87.398 107.872C89.6167 106.507 91.238 104.459 92.262 101.728L95.59 110.688C94.31 115.467 91.7927 119.093 88.038 121.568C84.3687 123.957 79.5047 125.152 73.446 125.152ZM131.933 124V54.624H156.253V124H131.933ZM144.093 46.944C139.656 46.944 136.072 45.7067 133.341 43.232C130.61 40.7573 129.245 37.6853 129.245 34.016C129.245 30.3467 130.61 27.2747 133.341 24.8C136.072 22.3253 139.656 21.088 144.093 21.088C148.53 21.088 152.114 22.2827 154.845 24.672C157.576 26.976 158.941 29.9627 158.941 33.632C158.941 37.472 157.576 40.672 154.845 43.232C152.2 45.7067 148.616 46.944 144.093 46.944Z" fill="black"/>
<ellipse cx="144.5" cy="33" rx="16.5" ry="15" fill="#DBFF00"/>
<ellipse cx="144.5" cy="216" rx="16.5" ry="15" fill="#DBFF00"/>
</g>
<defs>
<clipPath id="clip0_4_16">
<rect width="221" height="239" fill="white"/>
</clipPath>
</defs>
</svg>
