<svg width="331" height="157" viewBox="0 0 331 157" fill="none" xmlns="http://www.w3.org/2000/svg">
<path d="M93.926 124V111.072L92.262 107.872V84.064C92.262 80.224 91.0673 77.28 88.678 75.232C86.374 73.0987 82.662 72.032 77.542 72.032C74.214 72.032 70.8433 72.5867 67.43 73.696C64.0167 74.72 61.1153 76.1707 58.726 78.048L50.534 61.536C54.4593 58.976 59.1527 57.0133 64.614 55.648C70.1607 54.1973 75.6647 53.472 81.126 53.472C92.39 53.472 101.094 56.0747 107.238 61.28C113.467 66.4 116.582 74.464 116.582 85.472V124H93.926ZM73.446 125.152C67.8993 125.152 63.206 124.213 59.366 122.336C55.526 120.459 52.582 117.899 50.534 114.656C48.5713 111.413 47.59 107.787 47.59 103.776C47.59 99.5093 48.6567 95.84 50.79 92.768C53.0087 89.6107 56.3793 87.2213 60.902 85.6C65.4247 83.8933 71.27 83.04 78.438 83.04H94.822V95.712H81.766C77.8407 95.712 75.0673 96.352 73.446 97.632C71.91 98.912 71.142 100.619 71.142 102.752C71.142 104.885 71.9527 106.592 73.574 107.872C75.1953 109.152 77.414 109.792 80.23 109.792C82.8753 109.792 85.2647 109.152 87.398 107.872C89.6167 106.507 91.238 104.459 92.262 101.728L95.59 110.688C94.31 115.467 91.7927 119.093 88.038 121.568C84.3687 123.957 79.5047 125.152 73.446 125.152ZM131.933 124V54.624H156.253V124H131.933ZM144.093 46.944C139.656 46.944 136.072 45.7067 133.341 43.232C130.61 40.7573 129.245 37.6853 129.245 34.016C129.245 30.3467 130.61 27.2747 133.341 24.8C136.072 22.3253 139.656 21.088 144.093 21.088C148.53 21.088 152.114 22.2827 154.845 24.672C157.576 26.976 158.941 29.9627 158.941 33.632C158.941 37.472 157.576 40.672 154.845 43.232C152.2 45.7067 148.616 46.944 144.093 46.944Z" fill="black"/>
<path d="M210.926 124V111.072L209.262 107.872V84.064C209.262 80.224 208.067 77.28 205.678 75.232C203.374 73.0987 199.662 72.032 194.542 72.032C191.214 72.032 187.843 72.5867 184.43 73.696C181.017 74.72 178.115 76.1707 175.726 78.048L167.534 61.536C171.459 58.976 176.153 57.0133 181.614 55.648C187.161 54.1973 192.665 53.472 198.126 53.472C209.39 53.472 218.094 56.0747 224.238 61.28C230.467 66.4 233.582 74.464 233.582 85.472V124H210.926ZM190.446 125.152C184.899 125.152 180.206 124.213 176.366 122.336C172.526 120.459 169.582 117.899 167.534 114.656C165.571 111.413 164.59 107.787 164.59 103.776C164.59 99.5093 165.657 95.84 167.79 92.768C170.009 89.6107 173.379 87.2213 177.902 85.6C182.425 83.8933 188.27 83.04 195.438 83.04H211.822V95.712H198.766C194.841 95.712 192.067 96.352 190.446 97.632C188.91 98.912 188.142 100.619 188.142 102.752C188.142 104.885 188.953 106.592 190.574 107.872C192.195 109.152 194.414 109.792 197.23 109.792C199.875 109.792 202.265 109.152 204.398 107.872C206.617 106.507 208.238 104.459 209.262 101.728L212.59 110.688C211.31 115.467 208.793 119.093 205.038 121.568C201.369 123.957 196.505 125.152 190.446 125.152ZM248.933 124V54.624H273.253V124H248.933ZM261.093 46.944C256.656 46.944 253.072 45.7067 250.341 43.232C247.61 40.7573 246.245 37.6853 246.245 34.016C246.245 30.3467 247.61 27.2747 250.341 24.8C253.072 22.3253 256.656 21.088 261.093 21.088C265.53 21.088 269.114 22.2827 271.845 24.672C274.576 26.976 275.941 29.9627 275.941 33.632C275.941 37.472 274.576 40.672 271.845 43.232C269.2 45.7067 265.616 46.944 261.093 46.944Z" fill="black"/>
<ellipse cx="144.5" cy="33" rx="16.5" ry="15" fill="#FE700B"/>
<ellipse cx="261" cy="33" rx="17" ry="15" fill="#FE700B"/>
</svg>
